<svg width="45" height="44" viewBox="0 0 45 44" fill="none" xmlns="http://www.w3.org/2000/svg">
<rect x="0.0261688" width="44" height="44" rx="22" fill="#4A4643"/>
<path d="M33.6926 15.5833H25.526V13.25H33.6926V15.5833ZM35.7062 27.2498C35.1905 28.763 33.3391 30.7498 29.7551 30.7498C26.1688 30.7498 23.2638 28.7327 23.2638 24.129C23.2638 19.5674 25.9763 17.2225 29.6408 17.2225C33.2364 17.2225 35.432 19.3014 35.9115 22.3861C36.0025 22.9764 36.0387 23.7721 36.0224 24.8827H26.6576C26.8093 28.6288 30.7211 28.7467 32.0102 27.2498H35.7062ZM26.7393 22.5832H32.5317C32.4092 20.7784 31.2064 19.9944 29.6419 19.9944C27.9316 19.9944 26.9855 20.8904 26.7393 22.5832ZM15.5698 30.7358H8.02617V13.2745H16.1379C22.5265 13.369 22.6478 19.6258 19.3112 21.3314C23.349 22.8014 23.4843 30.7358 15.5698 30.7358ZM11.5261 20.2499H15.7074C18.6334 20.2499 19.0977 16.75 15.3434 16.75H11.5261V20.2499ZM15.4823 23.7499H11.5261V27.2685H15.4239C18.9881 27.2685 18.7699 23.7499 15.4823 23.7499Z" fill="white"/>
</svg>
