<svg width="461" height="488" viewBox="0 0 461 488" fill="none" xmlns="http://www.w3.org/2000/svg">
<path opacity="0.1" d="M31.9019 156.991L149.873 155.952L202.826 243.16L84.5718 243.732L31.9019 156.991Z" fill="#F0611D" fill-opacity="0.8"/>
<path opacity="0.2" d="M204.935 51.9951L149.57 156.133L202.469 243.25L257.55 138.645L204.935 51.9951Z" fill="#F0611D" fill-opacity="0.8"/>
<path opacity="0.3" d="M32.0756 157.277L87.126 52.6162L205.38 52.0445L205.617 52.4337L150.566 157.094L32.312 157.666L32.0756 157.277Z" fill="#F0611D" fill-opacity="0.8"/>
<path opacity="0.1" d="M31.043 350.917L147.567 349.891L199.871 436.029L83.0669 436.594L31.043 350.917Z" fill="#F0611D" fill-opacity="0.8"/>
<path opacity="0.2" d="M201.953 247.207L147.267 350.068L199.517 436.116L253.922 332.794L201.953 247.207Z" fill="#F0611D" fill-opacity="0.8"/>
<path opacity="0.3" d="M31.2144 351.199L85.5895 247.822L202.393 247.257L202.627 247.642L148.252 351.019L31.4479 351.584L31.2144 351.199Z" fill="#F0611D" fill-opacity="0.8"/>
<path opacity="0.1" d="M205.093 245.041L322.065 244.011L374.57 330.48L257.317 331.047L205.093 245.041Z" fill="#F0611D" fill-opacity="0.8"/>
<path opacity="0.2" d="M376.662 140.935L321.766 244.192L374.216 330.57L428.831 226.851L376.662 140.935Z" fill="#F0611D" fill-opacity="0.8"/>
<path opacity="0.3" d="M205.265 245.324L259.849 141.549L377.102 140.982L377.336 141.368L322.752 245.143L205.499 245.709L205.265 245.324Z" fill="#F0611D" fill-opacity="0.8"/>
</svg>
