<svg width="263" height="279" viewBox="0 0 263 279" fill="none" xmlns="http://www.w3.org/2000/svg">
<path opacity="0.1" d="M18.2032 89.5801L85.5178 88.9873L115.733 138.749L48.2569 139.075L18.2032 89.5801Z" fill="white" fill-opacity="0.8"/>
<path opacity="0.2" d="M116.937 29.6689L85.3454 89.0905L115.529 138.8L146.959 79.1117L116.937 29.6689Z" fill="white" fill-opacity="0.8"/>
<path opacity="0.3" d="M18.3025 89.7424L49.7144 30.0226L117.191 29.6964L117.326 29.9185L85.9137 89.6383L18.4373 89.9646L18.3025 89.7424Z" fill="white" fill-opacity="0.8"/>
<path opacity="0.1" d="M17.7134 200.235L84.2022 199.65L114.047 248.801L47.3984 249.123L17.7134 200.235Z" fill="white" fill-opacity="0.8"/>
<path opacity="0.2" d="M115.235 141.059L84.0315 199.751L113.845 248.851L144.889 189.895L115.235 141.059Z" fill="white" fill-opacity="0.8"/>
<path opacity="0.3" d="M17.8113 200.396L48.8379 141.408L115.487 141.086L115.62 141.306L84.5932 200.293L17.9445 200.615L17.8113 200.396Z" fill="white" fill-opacity="0.8"/>
<path opacity="0.1" d="M117.027 139.821L183.772 139.233L213.732 188.573L146.827 188.897L117.027 139.821Z" fill="white" fill-opacity="0.8"/>
<path opacity="0.2" d="M214.925 80.418L183.601 139.336L213.529 188.624L244.693 129.442L214.925 80.418Z" fill="white" fill-opacity="0.8"/>
<path opacity="0.3" d="M117.125 139.982L148.271 80.7683L215.176 80.4448L215.31 80.6651L184.164 139.879L117.259 140.203L117.125 139.982Z" fill="white" fill-opacity="0.8"/>
</svg>
