<svg width="44" height="44" viewBox="0 0 44 44" fill="none" xmlns="http://www.w3.org/2000/svg">
<rect width="44" height="44" rx="22" fill="white" fill-opacity="0.15"/>
<g filter="url(#filter0_d_1_137)">
<path d="M22 8C18.287 8 14.726 9.475 12.1005 12.1005C9.475 14.726 8 18.287 8 22C8 25.713 9.475 29.274 12.1005 31.8995C14.726 34.525 18.287 36 22 36C29.7141 36 36 29.7292 36 22C36 14.2708 29.7141 8 22 8ZM31.2472 14.4535C32.9706 16.5527 33.9244 19.1781 33.9501 21.894C33.5555 21.8183 29.6071 21.0129 25.6285 21.5154C25.5338 21.3177 25.461 21.1057 25.3701 20.8927C25.1269 20.3154 24.8534 19.7239 24.5808 19.1618C28.9853 17.3683 30.9907 14.7875 31.2472 14.4535ZM22 10.065C24.921 10.0632 27.7412 11.1331 29.926 13.0717C29.7131 13.3755 27.9064 15.7898 23.6543 17.3844C22.3181 14.9566 20.827 12.6173 19.1902 10.3811C20.1113 10.1669 21.0543 10.0608 22 10.065ZM16.9131 11.1884C18.5153 13.4091 19.9955 15.7154 21.347 18.0971C17.737 19.0409 14.0234 19.5305 10.2922 19.5545C10.6768 17.7443 11.4745 16.0473 12.623 14.5961C13.7715 13.1449 15.2397 11.9787 16.9131 11.1884ZM10.0347 22.0151V21.6508C10.5515 21.6659 16.3519 21.7454 22.3189 19.9473C22.6682 20.6154 22.9871 21.2987 23.2909 21.982C23.1385 22.0274 22.9719 22.0767 22.8177 22.1183C16.6529 24.1057 13.3727 29.5437 13.0992 29.9989C11.1262 27.8078 10.0345 24.9636 10.0347 22.0151ZM22 33.9653C19.342 33.9697 16.7593 33.0823 14.6655 31.445C14.8784 31.0049 17.3078 26.3279 24.0499 23.9742C24.0802 23.959 24.0953 23.959 24.1256 23.9439C25.264 26.8775 26.1196 29.9131 26.6809 33.0094C25.2024 33.6449 23.6093 33.9702 22 33.9653ZM28.6664 31.9154C28.5453 31.1866 27.9093 27.6944 26.343 23.3978C30.0936 22.8054 33.3738 23.7764 33.7835 23.9146C33.5282 25.5289 32.9417 27.0729 32.0611 28.4498C31.1805 29.8266 30.0248 31.0065 28.6664 31.9154Z" fill="white"/>
</g>
<defs>
<filter id="filter0_d_1_137" x="4" y="8" width="36" height="36" filterUnits="userSpaceOnUse" color-interpolation-filters="sRGB">
<feFlood flood-opacity="0" result="BackgroundImageFix"/>
<feColorMatrix in="SourceAlpha" type="matrix" values="0 0 0 0 0 0 0 0 0 0 0 0 0 0 0 0 0 0 127 0" result="hardAlpha"/>
<feOffset dy="4"/>
<feGaussianBlur stdDeviation="2"/>
<feComposite in2="hardAlpha" operator="out"/>
<feColorMatrix type="matrix" values="0 0 0 0 0 0 0 0 0 0 0 0 0 0 0 0 0 0 0.25 0"/>
<feBlend mode="normal" in2="BackgroundImageFix" result="effect1_dropShadow_1_137"/>
<feBlend mode="normal" in="SourceGraphic" in2="effect1_dropShadow_1_137" result="shape"/>
</filter>
</defs>
</svg>
