<svg width="1214" height="960" viewBox="0 0 1214 960" fill="none" xmlns="http://www.w3.org/2000/svg">
<path d="M17.1358 246.174C-67.467 -1.7292 245.933 -26.9627 472.104 47.8911C604.064 86.3874 690.725 -33.3333 854.198 14.4457C1017.67 62.2248 821.701 212.729 1071.83 289.972C1321.97 367.214 1199.86 712.816 981.235 716.797C762.614 720.779 822.685 778.91 604.064 911.895C385.443 1044.88 17.1363 860.135 108.721 665.037C200.305 469.939 108.72 514.533 17.1358 246.174Z" stroke="#FAFAFA" stroke-opacity="0.1" stroke-width="5"/>
<path d="M487.66 439.103C477.898 415.492 523.62 377.401 560.385 393.657C594.051 408.543 628.335 398.503 650.984 405.14C710.613 422.611 688.68 431.859 715.335 452.609C747.771 477.859 763.249 543.977 688.68 543.977C627.35 543.977 645.7 568.064 599.776 578.737C553.851 589.409 501.77 571.242 501.77 523.413C501.77 505.452 503.918 478.429 487.66 439.103Z" stroke="#FAFAFA" stroke-opacity="0.1" stroke-width="5"/>
<path d="M59.9046 262.508C-17.8943 34.995 271.171 8.59264 480.124 78.1194C603.148 114.469 685.047 4.71961 835.718 48.7584C989.751 93.7822 809.602 231.445 1039.42 303.552C1269.76 376.068 1160.16 696.262 954.633 699.882C750.311 703.501 806.59 758.538 603.668 880.403C400.747 1002.27 61.1878 832.667 144.446 650.957C227.705 471.963 144.641 510.046 59.9046 262.508Z" stroke="#FAFAFA" stroke-opacity="0.1" stroke-width="5"/>
<path d="M102.674 278.844C31.6787 71.7214 296.41 44.1502 488.143 108.35C602.232 142.553 679.37 42.7747 817.239 83.0733C961.831 125.342 797.504 250.163 1007.01 317.134C1217.56 384.924 1120.46 679.71 928.031 682.968C738.009 686.226 790.495 738.167 603.273 848.913C416.051 959.66 105.24 805.201 180.173 636.879C255.105 473.988 180.562 505.561 102.674 278.844Z" stroke="#FAFAFA" stroke-opacity="0.1" stroke-width="5"/>
<path d="M145.443 295.181C81.2516 108.448 321.648 79.7078 496.163 138.58C601.316 170.638 673.692 80.8299 798.759 117.388C933.911 156.902 785.405 268.881 974.59 330.717C1165.35 393.78 1080.76 663.159 901.429 666.054C725.706 668.95 774.399 717.796 602.877 817.423C431.355 917.051 149.292 777.735 215.898 622.802C282.505 476.014 216.483 501.076 145.443 295.181Z" stroke="#FAFAFA" stroke-opacity="0.1" stroke-width="5"/>
<path d="M188.213 311.517C130.825 145.175 346.888 115.266 504.184 168.811C600.401 198.722 668.015 118.885 780.28 151.703C905.992 188.461 773.307 287.6 942.176 344.3C1113.15 402.636 1041.07 646.607 874.829 649.141C713.404 651.674 758.305 697.426 602.483 785.934C446.66 874.442 193.344 750.27 251.625 608.724C309.906 478.04 252.406 496.591 188.213 311.517Z" stroke="#FAFAFA" stroke-opacity="0.1" stroke-width="5"/>
<path d="M230.983 328.683C180.399 182.731 372.127 151.653 512.205 199.872C599.486 227.636 662.339 157.771 761.801 186.848C878.072 220.851 761.21 307.148 909.762 358.712C1060.94 412.322 1001.37 630.885 848.228 633.057C701.103 635.229 742.21 677.885 602.088 755.274C461.965 832.662 237.397 723.634 287.352 595.477C337.307 480.896 288.328 492.936 230.983 328.683Z" stroke="#FAFAFA" stroke-opacity="0.1" stroke-width="5"/>
<path d="M273.754 346.828C229.974 221.266 397.368 189.019 520.226 231.91C598.572 257.528 656.663 197.634 743.323 222.971C850.154 254.219 749.113 327.674 877.35 374.102C1008.74 422.986 961.676 616.142 821.628 617.951C688.802 619.761 726.117 659.323 601.694 725.592C477.271 791.861 281.451 697.977 323.08 583.207C364.71 484.729 324.251 490.259 273.754 346.828Z" stroke="#FAFAFA" stroke-opacity="0.1" stroke-width="5"/>
<path d="M316.526 365.026C279.55 259.854 422.609 226.439 528.249 264.003C597.659 287.475 650.988 237.551 724.846 259.148C822.237 287.641 737.017 348.254 844.938 389.547C956.536 433.704 921.981 601.452 795.029 602.9C676.503 604.348 710.025 640.815 601.301 695.964C492.578 751.114 325.506 672.373 358.809 570.992C392.112 488.617 360.176 487.637 316.526 365.026Z" stroke="#FAFAFA" stroke-opacity="0.1" stroke-width="5"/>
<path d="M359.3 383.304C329.127 298.522 447.852 263.937 536.273 296.174C596.747 317.5 645.315 277.547 706.371 295.404C794.321 321.141 724.923 368.914 812.527 405.071C904.336 444.5 882.289 586.841 768.432 587.927C664.205 589.013 693.934 622.385 600.91 666.415C507.887 710.446 369.562 646.848 394.54 558.855C419.517 492.584 396.101 485.093 359.3 383.304Z" stroke="#FAFAFA" stroke-opacity="0.1" stroke-width="5"/>
<path d="M402.077 401.696C378.708 337.304 473.098 301.551 544.301 328.461C595.839 347.64 639.645 317.658 687.899 331.775C766.409 354.757 712.832 389.688 780.12 420.709C852.138 455.412 842.599 572.346 741.838 573.07C651.91 573.794 677.846 604.07 600.522 636.982C523.199 669.893 413.621 621.439 430.273 546.833C446.925 496.665 432.03 482.664 402.077 401.696Z" stroke="#FAFAFA" stroke-opacity="0.1" stroke-width="5"/>
<path d="M444.86 420.264C428.295 376.263 498.351 339.34 552.335 360.924C594.937 377.956 633.981 357.945 669.434 368.322C738.503 388.549 700.748 410.638 747.719 436.524C799.946 466.5 802.916 558.026 715.251 558.388C639.621 558.75 661.765 585.932 600.141 607.724C538.517 629.516 457.687 596.205 466.013 534.988C474.339 500.923 467.966 480.411 444.86 420.264Z" stroke="#FAFAFA" stroke-opacity="0.1" stroke-width="5"/>
</svg>
