<svg width="45" height="44" viewBox="0 0 45 44" fill="none" xmlns="http://www.w3.org/2000/svg">
<rect width="44.0262" height="44" rx="22" fill="white" fill-opacity="0.15"/>
<path d="M22.02 8C18.2147 8 17.7369 8.01653 16.2357 8.08401C14.7345 8.15149 13.7251 8.38837 12.8354 8.73405C11.9044 9.09325 11.0589 9.64301 10.3528 10.3481C9.64677 11.0532 9.09588 11.898 8.73543 12.8285C8.38838 13.7195 8.15149 14.7373 8.08401 16.2261C8.01653 17.7148 8 18.1968 8 21.9993C8 25.8018 8.01653 26.2769 8.08401 27.7712C8.15149 29.2655 8.38838 30.2791 8.73543 31.1701C9.09541 32.1006 9.64582 32.9455 10.3514 33.6508C11.0569 34.3562 11.9021 34.9063 12.8326 35.2659C13.7237 35.6116 14.7428 35.8485 16.2343 35.916C17.7258 35.9835 18.2065 36 22.0117 36C25.8169 36 26.2934 35.9835 27.7891 35.916C29.2847 35.8485 30.2997 35.6116 31.1922 35.2659C32.1225 34.9056 32.9675 34.3553 33.6732 33.6501C34.3789 32.9448 34.9298 32.1002 35.2907 31.1701C35.635 30.2791 35.8719 29.2613 35.9422 27.7726C36.0124 26.2838 36.0262 25.8032 36.0262 22.0007C36.0262 18.1982 36.0083 17.7217 35.9422 16.2274C35.8761 14.7332 35.635 13.7195 35.2907 12.8299C34.9305 11.8996 34.3798 11.0548 33.674 10.3497C32.9682 9.64462 32.1228 9.09478 31.1922 8.73543C30.2984 8.38975 29.2806 8.15287 27.7877 8.08539C26.2948 8.0179 25.8169 8.00138 22.0034 8.00138L22.02 8ZM20.7667 10.523H22.0241C25.766 10.523 26.2094 10.5368 27.6872 10.6029C29.0534 10.6649 29.7943 10.8935 30.2887 11.0849C30.8914 11.3179 31.4388 11.6742 31.8958 12.131C32.3528 12.5877 32.7093 13.1349 32.9426 13.7374C33.134 14.2305 33.3626 14.9769 33.4246 16.3362C33.4921 17.8126 33.5059 18.2561 33.5059 21.9924C33.5059 25.7288 33.4907 26.1722 33.4246 27.6486C33.3626 29.0134 33.134 29.7544 32.9426 30.2474C32.7094 30.8519 32.3524 31.4009 31.8944 31.8591C31.4364 32.3174 30.8876 32.6747 30.2832 32.9082C29.7902 33.101 29.0437 33.3282 27.6817 33.3902C26.2039 33.4577 25.7605 33.4714 22.0186 33.4714C18.2767 33.4714 17.8333 33.4563 16.3555 33.3902C14.9893 33.3268 14.2484 33.0996 13.754 32.9082C13.1499 32.6754 12.6012 32.3188 12.1432 31.8612C11.6852 31.4037 11.328 30.8554 11.0946 30.2515C10.9032 29.7585 10.6745 29.012 10.6126 27.6527C10.5451 26.1764 10.5327 25.7329 10.5327 21.9938C10.5327 18.2547 10.5465 17.814 10.6126 16.3376C10.6745 14.9728 10.9032 14.2319 11.0946 13.7374C11.3279 13.1334 11.6851 12.5848 12.1431 12.1271C12.6011 11.6693 13.1498 11.3124 13.754 11.0794C14.2484 10.8866 14.9935 10.6663 16.3555 10.596C17.6487 10.5382 18.1459 10.5203 20.7626 10.5175L20.7667 10.523ZM29.5037 12.8478C29.1715 12.848 28.8468 12.9468 28.5706 13.1316C28.2945 13.3164 28.0794 13.5789 27.9524 13.8859C27.8254 14.193 27.7924 14.5308 27.8574 14.8566C27.9223 15.1824 28.0825 15.4817 28.3175 15.7165C28.5525 15.9514 28.8519 16.1112 29.1778 16.176C29.5037 16.2407 29.8415 16.2073 30.1484 16.0801C30.4553 15.9529 30.7177 15.7376 30.9022 15.4613C31.0868 15.185 31.1853 14.8602 31.1853 14.528C31.1853 14.3072 31.1418 14.0886 31.0573 13.8847C30.9727 13.6807 30.8488 13.4954 30.6927 13.3394C30.5365 13.1834 30.3511 13.0596 30.1471 12.9753C29.9431 12.8909 29.7245 12.8476 29.5037 12.8478ZM22.02 14.8103C20.5984 14.8114 19.2091 15.2339 18.0276 16.0244C16.8461 16.815 15.9256 17.938 15.3822 19.2517C14.8389 20.5653 14.6973 22.0106 14.9752 23.4047C15.2531 24.7988 15.938 26.0793 16.9435 27.0842C17.949 28.0891 19.2299 28.7733 20.6242 29.0504C22.0184 29.3275 23.4636 29.185 24.7769 28.641C26.0902 28.0969 27.2128 27.1757 28.0026 25.9937C28.7925 24.8118 29.2142 23.4222 29.2145 22.0007C29.2141 21.0561 29.0277 20.1208 28.6659 19.2482C28.3041 18.3756 27.7739 17.5829 27.1057 16.9152C26.4375 16.2475 25.6444 15.7179 24.7715 15.3568C23.8987 14.9956 22.9632 14.8099 22.0186 14.8103H22.02ZM22.02 17.3333C22.9429 17.3341 23.8449 17.6086 24.6119 18.1219C25.3789 18.6353 25.9765 19.3645 26.3291 20.2174C26.6817 21.0703 26.7736 22.0087 26.593 22.9138C26.4125 23.8189 25.9676 24.6501 25.3147 25.3025C24.6618 25.9548 23.8301 26.3989 22.9249 26.5787C22.0196 26.7584 21.0814 26.6657 20.2288 26.3124C19.3762 25.959 18.6475 25.3608 18.1348 24.5933C17.6221 23.8258 17.3485 22.9236 17.3485 22.0007C17.3487 21.3875 17.4696 20.7803 17.7045 20.2138C17.9394 19.6474 18.2836 19.1327 18.7174 18.6993C19.1512 18.2659 19.6661 17.9222 20.2328 17.6878C20.7995 17.4534 21.4067 17.333 22.02 17.3333Z" fill="white"/>
</svg>
