<svg width="45" height="43" viewBox="0 0 45 43" fill="none" xmlns="http://www.w3.org/2000/svg">
<rect x="0.0261841" y="0.333496" width="44" height="42.6665" rx="21.3333" fill="white" fill-opacity="0.15"/>
<path d="M15.0629 12.8531C15.0626 13.521 14.7969 14.1615 14.3244 14.6335C13.8519 15.1056 13.2112 15.3706 12.5433 15.3702C11.8754 15.3699 11.235 15.1042 10.7629 14.6317C10.2909 14.1592 10.0259 13.5185 10.0262 12.8506C10.0265 12.1827 10.2922 11.5423 10.7647 11.0702C11.2372 10.5982 11.8779 10.3332 12.5458 10.3335C13.2137 10.3338 13.8541 10.5995 14.3262 11.072C14.7982 11.5445 15.0632 12.1852 15.0629 12.8531ZM15.1385 17.2351H10.1017V33H15.1385V17.2351ZM23.0965 17.2351H18.0849V33H23.0461V24.7272C23.0461 20.1186 29.0524 19.6905 29.0524 24.7272V33H34.0262V23.0147C34.0262 15.2456 25.1364 15.5352 23.0461 19.3505L23.0965 17.2351Z" fill="white"/>
</svg>
