<svg width="896" height="719" viewBox="0 0 896 719" fill="none" xmlns="http://www.w3.org/2000/svg">
<path d="M13.4146 184.745C-48.9169 -0.534546 181.982 -19.3938 348.615 36.551C445.837 65.3227 509.685 -24.1551 630.125 11.5544C750.564 47.2638 606.182 159.749 790.469 217.479C974.757 275.209 884.789 533.507 723.719 536.483C562.649 539.459 606.907 582.906 445.837 682.297C284.767 781.688 13.415 643.611 80.8902 497.798C148.365 351.984 80.8894 385.313 13.4146 184.745Z" stroke="white" stroke-opacity="0.35" stroke-width="5"/>
<path d="M360.075 328.938C352.884 311.291 386.569 282.822 413.656 294.972C438.46 306.098 463.718 298.594 480.406 303.554C524.337 316.612 508.178 323.524 527.816 339.032C551.714 357.903 563.117 407.319 508.178 407.319C462.993 407.319 476.513 425.322 442.678 433.298C408.843 441.275 370.471 427.697 370.471 391.95C370.471 378.526 372.054 358.329 360.075 328.938Z" stroke="white" stroke-opacity="0.35" stroke-width="5"/>
<path d="M44.9247 196.953C-12.3941 26.9128 200.577 7.17999 354.523 59.1434C445.162 86.3109 505.501 4.28534 616.509 37.1994C729.994 70.8496 597.268 173.737 766.587 227.629C936.294 281.826 855.542 521.135 704.12 523.84C553.585 526.546 595.049 567.679 445.545 658.76C296.042 749.841 45.8701 623.082 107.211 487.275C168.552 353.497 107.354 381.96 44.9247 196.953Z" stroke="white" stroke-opacity="0.35" stroke-width="5"/>
<path d="M76.4352 209.163C24.1291 54.3617 219.171 33.7552 360.432 81.7373C444.487 107.301 501.319 32.7272 602.894 62.8459C709.423 94.4368 588.354 187.727 742.706 237.78C897.831 288.445 826.295 508.765 684.521 511.199C544.521 513.634 583.19 552.454 445.254 635.225C307.318 717.995 78.3257 602.555 133.533 476.753C188.74 355.011 133.82 378.608 76.4352 209.163Z" stroke="white" stroke-opacity="0.35" stroke-width="5"/>
<path d="M107.946 221.372C60.6523 81.8102 237.766 60.3302 366.341 104.331C443.812 128.29 497.136 61.1688 589.279 88.492C688.853 118.024 579.441 201.716 718.824 247.931C859.369 295.064 797.048 496.394 664.922 498.558C535.457 500.722 571.332 537.229 444.963 611.689C318.593 686.149 110.781 582.027 159.854 466.232C208.927 356.524 160.285 375.255 107.946 221.372Z" stroke="white" stroke-opacity="0.35" stroke-width="5"/>
<path d="M139.457 233.582C97.1759 109.26 256.361 86.906 372.25 126.925C443.138 149.28 492.953 89.6113 575.665 114.139C668.284 141.612 570.528 215.706 694.943 258.083C820.907 301.683 767.801 484.024 645.324 485.917C526.394 487.811 559.475 522.005 444.672 588.155C329.869 654.304 143.237 561.5 186.176 455.711C229.115 358.039 186.751 371.904 139.457 233.582Z" stroke="white" stroke-opacity="0.35" stroke-width="5"/>
<path d="M170.968 246.412C133.7 137.329 274.956 114.101 378.159 150.139C442.464 170.89 488.771 118.673 562.051 140.406C647.714 165.819 561.615 230.316 671.062 268.855C782.445 308.922 738.555 472.273 625.726 473.897C517.331 475.52 547.617 507.401 444.381 565.24C341.145 623.079 175.693 541.593 212.498 445.809C249.303 360.173 213.217 369.172 170.968 246.412Z" stroke="white" stroke-opacity="0.35" stroke-width="5"/>
<path d="M202.48 259.972C170.224 166.129 293.552 142.028 384.069 174.085C441.791 193.231 484.589 148.467 548.437 167.404C627.145 190.758 552.702 245.657 647.181 280.357C743.983 316.892 709.309 461.254 606.128 462.607C508.268 463.959 535.76 493.527 444.091 543.056C352.422 592.585 208.15 522.417 238.821 436.639C269.491 363.038 239.684 367.171 202.48 259.972Z" stroke="white" stroke-opacity="0.35" stroke-width="5"/>
<path d="M233.992 273.574C206.749 194.969 312.149 169.995 389.98 198.07C441.118 215.612 480.408 178.3 534.824 194.442C606.577 215.736 543.791 261.039 623.302 291.9C705.523 324.902 680.064 450.275 586.532 451.357C499.206 452.439 523.904 479.694 443.801 520.912C363.699 562.131 240.608 503.281 265.144 427.509C289.68 365.944 266.151 365.211 233.992 273.574Z" stroke="white" stroke-opacity="0.35" stroke-width="5"/>
<path d="M265.506 287.234C243.276 223.869 330.747 198.021 395.892 222.114C440.446 238.053 476.229 208.192 521.212 221.539C586.01 240.774 534.88 276.479 599.423 303.502C667.064 332.971 650.82 439.355 566.936 440.167C490.146 440.978 512.049 465.92 443.514 498.828C374.978 531.736 273.067 484.204 291.469 418.438C309.871 368.908 292.619 363.309 265.506 287.234Z" stroke="white" stroke-opacity="0.35" stroke-width="5"/>
<path d="M297.022 300.98C279.804 252.855 349.347 226.133 401.806 246.246C439.777 260.58 472.051 238.172 507.603 248.723C565.445 265.899 525.972 292.006 575.547 315.191C628.606 341.127 621.579 428.522 547.343 429.063C481.088 429.604 500.196 452.233 443.228 476.83C386.259 501.427 305.527 465.214 317.796 409.454C330.064 371.959 319.09 361.495 297.022 300.98Z" stroke="white" stroke-opacity="0.35" stroke-width="5"/>
<path d="M328.542 314.858C316.338 281.971 367.952 254.376 407.725 270.507C439.112 283.237 467.879 268.281 493.998 276.037C544.885 291.154 517.069 307.663 551.676 327.01C590.154 349.414 592.342 417.819 527.754 418.09C472.034 418.36 488.348 438.675 442.947 454.962C397.545 471.249 337.993 446.354 344.127 400.6C350.262 375.141 345.566 359.81 328.542 314.858Z" stroke="white" stroke-opacity="0.35" stroke-width="5"/>
</svg>
